<?xml version="1.0" standalone="no"?>
<!DOCTYPE svg PUBLIC "-//W3C//DTD SVG 20010904//EN"
 "http://www.w3.org/TR/2001/REC-SVG-20010904/DTD/svg10.dtd">
<svg version="1.0" xmlns="http://www.w3.org/2000/svg"
 width="489.000000pt" height="489.000000pt" viewBox="0 0 489.000000 489.000000"
 preserveAspectRatio="xMidYMid meet">

<g transform="translate(0.000000,489.000000) scale(0.100000,-0.100000)"
fill="#000000" stroke="none">
<path d="M2210 3913 c-81 -9 -201 -38 -309 -75 -299 -102 -556 -304 -741 -579
-106 -160 -176 -330 -221 -539 -30 -138 -33 -397 -6 -535 124 -637 613 -1118
1230 -1209 189 -29 463 -15 617 29 196 57 406 159 533 259 18 14 11 24 -114
163 -320 356 -579 642 -588 647 -5 3 -28 -49 -52 -116 -24 -67 -51 -130 -61
-140 -16 -16 -18 -37 -18 -153 0 -147 8 -178 54 -208 13 -9 43 -19 65 -23 95
-15 26 -24 -189 -24 -147 0 -230 4 -230 10 0 6 10 10 22 10 12 0 41 9 64 20
64 31 74 62 74 224 l0 136 -420 0 c-393 0 -489 7 -378 25 59 10 104 57 113
116 3 24 5 305 3 624 -3 540 -4 582 -21 607 -18 27 -81 58 -117 58 -11 0 -20
4 -20 9 0 4 125 11 278 14 199 3 292 9 330 20 40 11 55 12 58 3 3 -7 3 -66 2
-132 -3 -123 -18 -160 -29 -70 -4 38 -12 55 -37 77 -32 29 -33 29 -167 29
l-134 0 -3 -298 c-2 -164 -2 -306 0 -315 3 -15 25 -17 211 -17 196 0 210 1
235 21 16 12 31 38 37 65 6 24 15 44 20 44 5 0 9 -74 9 -165 0 -157 -10 -208
-25 -128 -3 20 -19 49 -35 65 l-28 28 -211 0 -211 0 0 -305 0 -305 268 2 267
3 3 420 c2 298 -1 428 -9 448 -17 40 -64 76 -110 83 -101 16 -13 24 274 24
332 0 379 -5 469 -51 23 -12 63 -43 89 -70 194 -199 75 -607 -192 -660 l-59
-12 108 -116 c59 -65 201 -219 315 -344 115 -125 213 -227 219 -227 15 0 106
103 170 192 113 156 189 326 236 521 25 103 27 128 26 317 0 155 -4 227 -18
295 -110 558 -513 1006 -1042 1160 -134 39 -261 55 -424 53 -80 -1 -161 -3
-180 -5z m107 -223 c6 -22 6 -22 27 -14 8 3 12 12 9 21 -4 11 -2 14 8 11 17
-5 26 -88 10 -88 -6 0 -11 7 -11 15 0 24 -37 18 -45 -7 l-7 -23 -8 25 c-12 37
-12 80 1 80 6 0 13 -9 16 -20z m227 14 c9 -3 14 -10 11 -15 -3 -4 -12 -6 -19
-3 -8 3 -17 1 -20 -4 -3 -5 4 -13 17 -17 l22 -8 -22 -4 c-25 -5 -32 -23 -9
-23 8 0 18 -5 21 -11 5 -7 -5 -9 -26 -7 -33 3 -34 4 -31 43 2 22 6 43 9 48 5
9 26 9 47 1z m-369 -23 c3 -5 -5 -11 -17 -13 -24 -3 -36 -34 -20 -50 6 -6 17
-6 31 1 12 7 21 8 21 3 0 -13 -23 -32 -39 -32 -20 0 -51 30 -51 48 0 35 59 69
75 43z m525 -36 c0 -35 14 -38 41 -7 l24 27 3 -26 c4 -33 -15 -82 -28 -74 -6
4 -8 11 -5 16 4 5 2 9 -4 9 -5 0 -13 -4 -16 -10 -11 -18 -25 -11 -25 13 -1 20
-2 21 -14 5 -29 -39 -32 -11 -6 57 12 31 30 24 30 -10z m230 -107 l0 -53 -19
24 c-13 17 -23 22 -39 16 -29 -9 -28 3 5 37 41 42 53 37 53 -24z m164 -34 c9
-3 16 -16 16 -27 0 -16 -3 -18 -12 -9 -7 7 -16 12 -22 12 -6 0 -5 -5 2 -12 16
-16 15 -45 0 -51 -20 -6 -46 4 -53 20 -7 21 2 30 17 15 19 -19 29 -14 17 7
-13 19 -6 51 10 51 5 0 16 -3 25 -6z m149 -108 c34 -26 12 -78 -24 -55 -8 4
-25 5 -38 2 l-24 -6 28 37 c30 40 33 41 58 22z m141 -145 c21 -23 14 -56 -15
-72 -47 -25 -90 32 -54 71 23 25 47 25 69 1z m124 -186 c-2 -12 -12 -21 -25
-23 -13 -2 -23 -10 -23 -19 0 -8 -6 -13 -12 -10 -7 2 -12 14 -11 26 2 13 -3
21 -12 21 -26 0 -17 15 23 38 35 20 38 20 50 4 7 -9 11 -26 10 -37z m87 -141
c12 -30 12 -30 -19 -31 -17 0 -41 -4 -53 -8 -15 -5 -23 -3 -23 4 0 7 14 17 30
22 20 7 30 18 30 31 0 28 20 18 35 -18z"/>
<path d="M3220 3370 c0 -5 5 -10 10 -10 6 0 10 5 10 10 0 6 -4 10 -10 10 -5 0
-10 -4 -10 -10z"/>
<path d="M3330 3234 c-11 -12 -11 -18 2 -30 14 -14 17 -14 32 1 13 13 14 20 5
31 -15 18 -24 18 -39 -2z"/>
<path d="M3470 3080 c0 -5 5 -10 10 -10 6 0 10 5 10 10 0 6 -4 10 -10 10 -5 0
-10 -4 -10 -10z"/>
<path d="M2480 2374 c0 -299 3 -413 11 -408 6 3 29 34 50 67 l40 61 -23 17
c-12 10 -20 20 -17 23 3 3 50 8 105 10 165 6 258 55 311 164 25 51 28 67 27
157 -1 123 -26 197 -88 259 -56 56 -96 66 -270 66 l-146 0 0 -416z"/>
</g>
</svg>
